<svg width="92" height="92" viewBox="0 0 92 92" fill="none" xmlns="http://www.w3.org/2000/svg">
<g clip-path="url(#clip0_30_959)">
<path d="M19.6798 67.7733C19.3899 67.7738 19.1122 67.8895 18.9076 68.0949C18.703 68.3003 18.5883 68.5785 18.5889 68.8684V69.9635C18.5883 70.1071 18.6161 70.2494 18.6707 70.3823C18.7253 70.5151 18.8055 70.6359 18.9069 70.7377C19.0083 70.8394 19.1287 70.9201 19.2613 70.9752C19.394 71.0303 19.5362 71.0587 19.6798 71.0587C19.8234 71.0587 19.9656 71.0303 20.0983 70.9752C20.2309 70.9201 20.3514 70.8394 20.4527 70.7377C20.5541 70.6359 20.6344 70.5151 20.6889 70.3823C20.7435 70.2494 20.7713 70.1071 20.7708 69.9635V68.8684C20.7713 68.5785 20.6567 68.3003 20.4521 68.0949C20.2475 67.8895 19.9697 67.7738 19.6798 67.7733Z" fill="#FF6B00"/>
<path d="M24.0207 67.7733C23.7308 67.7738 23.453 67.8895 23.2484 68.0949C23.0438 68.3003 22.9292 68.5785 22.9297 68.8684V69.9635C22.9292 70.1071 22.9571 70.2493 23.0117 70.3821C23.0664 70.5148 23.1467 70.6355 23.248 70.7372C23.3494 70.8388 23.4698 70.9195 23.6024 70.9745C23.7349 71.0296 23.8771 71.0579 24.0207 71.0579C24.1642 71.0579 24.3064 71.0296 24.4389 70.9745C24.5715 70.9195 24.692 70.8388 24.7933 70.7372C24.8947 70.6355 24.9749 70.5148 25.0296 70.3821C25.0842 70.2493 25.1121 70.1071 25.1116 69.9635V68.8684C25.1121 68.5785 24.9975 68.3003 24.7929 68.0949C24.5883 67.8895 24.3105 67.7738 24.0207 67.7733Z" fill="#222222"/>
<path d="M28.362 67.7733C28.0721 67.7738 27.7943 67.8895 27.5897 68.0949C27.3851 68.3003 27.2705 68.5785 27.271 68.8684V69.9635C27.2705 70.1071 27.2984 70.2493 27.3531 70.3821C27.4077 70.5148 27.488 70.6355 27.5893 70.7372C27.6907 70.8388 27.8111 70.9195 27.9437 70.9745C28.0763 71.0296 28.2184 71.0579 28.362 71.0579C28.5055 71.0579 28.6477 71.0296 28.7803 70.9745C28.9128 70.9195 29.0333 70.8388 29.1346 70.7372C29.236 70.6355 29.3163 70.5148 29.3709 70.3821C29.4255 70.2493 29.4534 70.1071 29.4529 69.9635V68.8684C29.4535 68.5785 29.3388 68.3003 29.1342 68.0949C28.9296 67.8895 28.6519 67.7738 28.362 67.7733Z" fill="#FF6B00"/>
<path d="M32.7711 67.7733C32.4812 67.7738 32.2034 67.8895 31.9989 68.0949C31.7943 68.3003 31.6796 68.5785 31.6802 68.8684V69.9635C31.6796 70.1071 31.7074 70.2494 31.762 70.3823C31.8166 70.5151 31.8969 70.6359 31.9982 70.7377C32.0996 70.8394 32.22 70.9201 32.3527 70.9752C32.4853 71.0303 32.6275 71.0587 32.7711 71.0587C32.9147 71.0587 33.057 71.0303 33.1896 70.9752C33.3222 70.9201 33.4427 70.8394 33.544 70.7377C33.6454 70.6359 33.7257 70.5151 33.7802 70.3823C33.8348 70.2494 33.8626 70.1071 33.8621 69.9635V68.8684C33.8626 68.5785 33.748 68.3003 33.5434 68.0949C33.3388 67.8895 33.061 67.7738 32.7711 67.7733Z" fill="#222222"/>
<path d="M37.112 67.7733C36.8221 67.7738 36.5443 67.8895 36.3397 68.0949C36.1351 68.3003 36.0205 68.5785 36.021 68.8684V69.9635C36.0204 70.1071 36.0483 70.2494 36.1028 70.3823C36.1574 70.5151 36.2377 70.6359 36.339 70.7377C36.4404 70.8394 36.5608 70.9201 36.6935 70.9752C36.8261 71.0303 36.9683 71.0587 37.1119 71.0587C37.2556 71.0587 37.3978 71.0303 37.5304 70.9752C37.663 70.9201 37.7835 70.8394 37.8849 70.7377C37.9862 70.6359 38.0665 70.5151 38.1211 70.3823C38.1756 70.2494 38.2034 70.1071 38.2029 69.9635V68.8684C38.2034 68.5785 38.0888 68.3003 37.8842 68.0949C37.6796 67.8895 37.4018 67.7738 37.112 67.7733Z" fill="#FF6B00"/>
<path d="M41.4533 67.7733C41.1634 67.7738 40.8856 67.8895 40.681 68.0949C40.4764 68.3003 40.3618 68.5785 40.3623 68.8684V69.9635C40.3618 70.1071 40.3896 70.2494 40.4441 70.3823C40.4987 70.5151 40.579 70.6359 40.6803 70.7377C40.7817 70.8394 40.9022 70.9201 41.0348 70.9752C41.1674 71.0303 41.3096 71.0587 41.4533 71.0587C41.5969 71.0587 41.7391 71.0303 41.8717 70.9752C42.0044 70.9201 42.1248 70.8394 42.2262 70.7377C42.3275 70.6359 42.4078 70.5151 42.4624 70.3823C42.5169 70.2494 42.5448 70.1071 42.5442 69.9635V68.8684C42.5447 68.5785 42.4301 68.3003 42.2255 68.0949C42.0209 67.8895 41.7432 67.7738 41.4533 67.7733Z" fill="#222222"/>
<path d="M45.8624 67.7733C45.5726 67.7738 45.2948 67.8895 45.0902 68.0949C44.8856 68.3003 44.771 68.5785 44.7715 68.8684V69.9635C44.771 70.1071 44.7989 70.2493 44.8535 70.3821C44.9082 70.5148 44.9884 70.6355 45.0898 70.7372C45.1911 70.8388 45.3116 70.9195 45.4442 70.9745C45.5767 71.0296 45.7189 71.0579 45.8624 71.0579C46.006 71.0579 46.1482 71.0296 46.2807 70.9745C46.4133 70.9195 46.5337 70.8388 46.6351 70.7372C46.7365 70.6355 46.8167 70.5148 46.8714 70.3821C46.926 70.2493 46.9539 70.1071 46.9534 69.9635V68.8684C46.9539 68.5785 46.8393 68.3003 46.6347 68.0949C46.4301 67.8895 46.1523 67.7738 45.8624 67.7733Z" fill="#FF6B00"/>
<path d="M50.2032 67.7733C49.9134 67.7738 49.6356 67.8895 49.431 68.0949C49.2264 68.3003 49.1118 68.5785 49.1123 68.8684V69.9635C49.1118 70.1071 49.1396 70.2494 49.1941 70.3823C49.2487 70.5151 49.329 70.6359 49.4303 70.7377C49.5317 70.8394 49.6522 70.9201 49.7848 70.9752C49.9174 71.0303 50.0596 71.0587 50.2033 71.0587C50.3469 71.0587 50.4891 71.0303 50.6217 70.9752C50.7544 70.9201 50.8748 70.8394 50.9762 70.7377C51.0775 70.6359 51.1578 70.5151 51.2124 70.3823C51.2669 70.2494 51.2948 70.1071 51.2942 69.9635V68.8684C51.2947 68.5785 51.1801 68.3003 50.9755 68.0949C50.7709 67.8895 50.4931 67.7738 50.2032 67.7733Z" fill="#222222"/>
<path d="M54.545 67.7733C54.2552 67.7738 53.9774 67.8895 53.7728 68.0949C53.5682 68.3003 53.4536 68.5785 53.4541 68.8684V69.9635C53.4536 70.1071 53.4814 70.2494 53.5359 70.3823C53.5905 70.5151 53.6708 70.6359 53.7721 70.7377C53.8735 70.8394 53.9939 70.9201 54.1266 70.9752C54.2592 71.0303 54.4014 71.0587 54.5451 71.0587C54.6887 71.0587 54.8309 71.0303 54.9635 70.9752C55.0962 70.9201 55.2166 70.8394 55.318 70.7377C55.4193 70.6359 55.4996 70.5151 55.5542 70.3823C55.6087 70.2494 55.6365 70.1071 55.636 69.9635V68.8684C55.6365 68.5785 55.5219 68.3003 55.3173 68.0949C55.1127 67.8895 54.8349 67.7738 54.545 67.7733Z" fill="#FF6B00"/>
<path d="M58.9538 67.7733C58.6639 67.7738 58.3861 67.8895 58.1815 68.0949C57.9769 68.3003 57.8623 68.5785 57.8628 68.8684V69.9635C57.8622 70.1071 57.89 70.2494 57.9446 70.3823C57.9992 70.5151 58.0795 70.6359 58.1808 70.7377C58.2822 70.8394 58.4026 70.9201 58.5353 70.9752C58.6679 71.0303 58.8101 71.0587 58.9537 71.0587C59.0974 71.0587 59.2396 71.0303 59.3722 70.9752C59.5048 70.9201 59.6253 70.8394 59.7267 70.7377C59.828 70.6359 59.9083 70.5151 59.9629 70.3823C60.0174 70.2494 60.0452 70.1071 60.0447 69.9635V68.8684C60.0452 68.5785 59.9306 68.3003 59.726 68.0949C59.5214 67.8895 59.2436 67.7738 58.9538 67.7733Z" fill="#222222"/>
<path d="M63.2946 67.7733C63.0047 67.7738 62.7269 67.8895 62.5223 68.0949C62.3177 68.3003 62.2031 68.5785 62.2036 68.8684V69.9635C62.2031 70.1071 62.2309 70.2494 62.2854 70.3823C62.34 70.5151 62.4203 70.6359 62.5217 70.7377C62.623 70.8394 62.7435 70.9201 62.8761 70.9752C63.0087 71.0303 63.1509 71.0587 63.2946 71.0587C63.4382 71.0587 63.5804 71.0303 63.713 70.9752C63.8457 70.9201 63.9661 70.8394 64.0675 70.7377C64.1688 70.6359 64.2491 70.5151 64.3037 70.3823C64.3583 70.2494 64.3861 70.1071 64.3855 69.9635V68.8684C64.386 68.5785 64.2714 68.3003 64.0668 68.0949C63.8623 67.8895 63.5845 67.7738 63.2946 67.7733Z" fill="#FF6B00"/>
<path d="M67.6364 67.7733C67.3465 67.7738 67.0687 67.8895 66.8641 68.0949C66.6595 68.3003 66.5449 68.5785 66.5454 68.8684V69.9635C66.545 70.1071 66.5728 70.2493 66.6275 70.3821C66.6821 70.5148 66.7624 70.6355 66.8637 70.7372C66.9651 70.8388 67.0855 70.9195 67.2181 70.9745C67.3507 71.0296 67.4928 71.0579 67.6364 71.0579C67.7799 71.0579 67.9221 71.0296 68.0547 70.9745C68.1873 70.9195 68.3077 70.8388 68.409 70.7372C68.5104 70.6355 68.5907 70.5148 68.6453 70.3821C68.6999 70.2493 68.7278 70.1071 68.7273 69.9635V68.8684C68.7279 68.5785 68.6132 68.3003 68.4086 68.0949C68.2041 67.8895 67.9263 67.7738 67.6364 67.7733Z" fill="#222222"/>
<path d="M72.0455 67.7733C71.7556 67.7738 71.4779 67.8895 71.2733 68.0949C71.0687 68.3003 70.9541 68.5785 70.9546 68.8684V69.9635C70.954 70.1071 70.9819 70.2494 71.0364 70.3823C71.091 70.5151 71.1713 70.6359 71.2726 70.7377C71.374 70.8394 71.4944 70.9201 71.6271 70.9752C71.7597 71.0303 71.9019 71.0587 72.0455 71.0587C72.1892 71.0587 72.3314 71.0303 72.464 70.9752C72.5966 70.9201 72.7171 70.8394 72.8185 70.7377C72.9198 70.6359 73.0001 70.5151 73.0547 70.3823C73.1092 70.2494 73.137 70.1071 73.1365 69.9635V68.8684C73.137 68.5785 73.0224 68.3003 72.8178 68.0949C72.6132 67.8895 72.3354 67.7738 72.0455 67.7733Z" fill="#FF6B00"/>
<path d="M25.1344 28.8964C26.4885 28.9004 27.7931 29.4065 28.7956 30.3168C29.7981 31.2271 30.4273 32.4769 30.5615 33.8244H32.7434C32.6146 31.8941 31.757 30.0848 30.3442 28.7631C28.9314 27.4414 27.069 26.7061 25.1344 26.7061C23.1998 26.7061 21.3374 27.4414 19.9246 28.7631C18.5118 30.0848 17.6542 31.8941 17.5254 33.8244H19.7073C19.8415 32.4769 20.4707 31.2271 21.4732 30.3168C22.4757 29.4065 23.7803 28.9004 25.1344 28.8964Z" fill="#FF6B00"/>
<path d="M24.9712 51.095H38.1656L39.2652 48.9271H32.6679C36.3445 46.6158 38.9614 42.9107 39.3103 38.3606C39.3321 38.0607 39.2919 37.7595 39.1921 37.4758C39.0923 37.1922 38.9351 36.9321 38.7303 36.712C38.5255 36.4918 38.2775 36.3163 38.0018 36.1963C37.726 36.0763 37.4285 36.0145 37.1278 36.0147H13.1408C12.8402 36.0145 12.5427 36.0763 12.267 36.1963C11.9913 36.3163 11.7433 36.4918 11.5385 36.7119C11.3336 36.932 11.1764 37.192 11.0766 37.4756C10.9768 37.7593 10.9366 38.0604 10.9584 38.3603C11.2392 41.866 12.8439 45.1333 15.4466 47.4986C18.0493 49.8639 21.4547 51.1498 24.9712 51.095ZM13.1408 38.2049L37.1348 38.1924C36.8631 41.1866 35.4823 43.9711 33.2632 45.9996C31.0441 48.028 28.147 49.1539 25.1405 49.1561C22.134 49.1584 19.2352 48.037 17.013 46.0119C14.7909 43.9868 13.4058 41.2043 13.1296 38.2106C13.1309 38.2088 13.1326 38.2073 13.1345 38.2064C13.1365 38.2054 13.1386 38.2049 13.1408 38.2049Z" fill="#222222"/>
<path d="M22.9527 46.4184C23.2425 46.4173 23.5199 46.3014 23.7244 46.0961C23.9288 45.8909 24.0436 45.613 24.0436 45.3233C24.0436 45.0335 23.9288 44.7556 23.7244 44.5504C23.5199 44.3451 23.2425 44.2293 22.9527 44.2281C20.6691 44.2281 18.7503 42.7429 18.5847 40.8471C18.5726 40.704 18.5324 40.5647 18.4664 40.4372C18.4004 40.3097 18.3098 40.1964 18.1999 40.104C18.09 40.0116 17.963 39.9417 17.826 39.8985C17.6891 39.8553 17.545 39.8395 17.4019 39.8521C17.2589 39.8647 17.1197 39.9054 16.9925 39.9719C16.8652 40.0384 16.7523 40.1294 16.6603 40.2396C16.5682 40.3498 16.4989 40.4771 16.4561 40.6142C16.4134 40.7513 16.3982 40.8955 16.4113 41.0385C16.675 44.0551 19.5483 46.4184 22.9527 46.4184Z" fill="#FF6B00"/>
<path d="M66.8654 26.7062C64.9326 26.7126 63.0738 27.45 61.6624 28.7704C60.251 30.0908 59.3914 31.8964 59.2563 33.8245H61.4383C61.5686 32.4754 62.1967 31.2233 63.2 30.3123C64.2034 29.4012 65.5101 28.8964 66.8654 28.8964C68.2207 28.8964 69.5274 29.4012 70.5307 30.3123C71.5341 31.2233 72.1621 32.4754 72.2925 33.8245H74.4744C74.3393 31.8964 73.4798 30.0908 72.0683 28.7704C70.6569 27.45 68.7981 26.7126 66.8654 26.7062Z" fill="#FF6B00"/>
<path d="M53.2607 36.7216C53.0583 36.9411 52.9032 37.1999 52.8049 37.4818C52.7067 37.7637 52.6674 38.0628 52.6896 38.3606C53.0384 42.9107 55.6554 46.6158 59.3319 48.9271H52.7347L53.8343 51.095H67.0287C70.5451 51.1497 73.9506 49.8639 76.5533 47.4986C79.156 45.1333 80.7607 41.866 81.0414 38.3603C81.0633 38.0604 81.023 37.7593 80.9232 37.4756C80.8234 37.192 80.6662 36.932 80.4614 36.7119C80.2566 36.4918 80.0086 36.3163 79.7329 36.1963C79.4572 36.0763 79.1597 36.0145 78.859 36.0147H54.872C54.5692 36.0152 54.2698 36.0783 53.9925 36.1999C53.7153 36.3216 53.4661 36.4992 53.2607 36.7216ZM78.8702 38.2106C78.5941 41.2043 77.209 43.9868 74.9868 46.0119C72.7647 48.037 69.8659 49.1584 66.8594 49.1561C63.8529 49.1539 60.9558 48.028 58.7367 45.9996C56.5176 43.9711 55.1367 41.1866 54.8651 38.1924L78.859 38.2049C78.8612 38.2049 78.8634 38.2054 78.8653 38.2064C78.8673 38.2073 78.869 38.2088 78.8702 38.2106Z" fill="#222222"/>
<path d="M69.0474 46.4184C72.4519 46.4184 75.3252 44.0552 75.5889 41.0385C75.602 40.8955 75.5868 40.7513 75.544 40.6142C75.5013 40.4771 75.4319 40.3498 75.3399 40.2396C75.2479 40.1294 75.135 40.0384 75.0077 39.9719C74.8804 39.9054 74.7413 39.8647 74.5982 39.8521C74.4552 39.8395 74.3111 39.8553 74.1741 39.8985C74.0372 39.9417 73.9101 40.0116 73.8003 40.104C73.6904 40.1964 73.5998 40.3097 73.5338 40.4372C73.4678 40.5647 73.4276 40.704 73.4155 40.8471C73.2498 42.7429 71.3311 44.2281 69.0474 44.2281C68.7577 44.2293 68.4803 44.3451 68.2758 44.5504C68.0713 44.7556 67.9565 45.0336 67.9565 45.3233C67.9565 45.613 68.0713 45.8909 68.2758 46.0961C68.4803 46.3014 68.7577 46.4173 69.0474 46.4184Z" fill="#FF6B00"/>
<path d="M22.93 21.3669C23.2549 21.3669 23.5725 21.2705 23.8427 21.09C24.1129 20.9095 24.3234 20.6529 24.4478 20.3527C24.5721 20.0525 24.6046 19.7222 24.5413 19.4035C24.4779 19.0848 24.3214 18.7921 24.0916 18.5624C23.8619 18.3326 23.5692 18.1761 23.2505 18.1127C22.9318 18.0494 22.6015 18.0819 22.3013 18.2062C22.0011 18.3306 21.7445 18.5411 21.564 18.8113C21.3835 19.0815 21.2871 19.3991 21.2871 19.724C21.2876 20.1596 21.4609 20.5772 21.7688 20.8852C22.0768 21.1931 22.4944 21.3664 22.93 21.3669ZM22.93 18.9026C23.0924 18.9026 23.2512 18.9508 23.3863 19.041C23.5214 19.1313 23.6267 19.2596 23.6889 19.4097C23.751 19.5598 23.7673 19.7249 23.7356 19.8843C23.7039 20.0436 23.6257 20.19 23.5108 20.3049C23.3959 20.4197 23.2496 20.498 23.0902 20.5297C22.9309 20.5614 22.7657 20.5451 22.6156 20.4829C22.4655 20.4208 22.3372 20.3155 22.247 20.1804C22.1567 20.0453 22.1085 19.8865 22.1085 19.724C22.1088 19.5062 22.1954 19.2974 22.3494 19.1434C22.5034 18.9894 22.7122 18.9028 22.93 18.9026Z" fill="#222222"/>
<path d="M86.6904 38.2062C86.4738 38.2062 86.2621 38.2704 86.082 38.3908C85.9019 38.5111 85.7615 38.6822 85.6786 38.8823C85.5957 39.0824 85.574 39.3026 85.6163 39.5151C85.6585 39.7275 85.7628 39.9227 85.916 40.0759C86.0692 40.229 86.2643 40.3333 86.4768 40.3756C86.6892 40.4179 86.9095 40.3962 87.1096 40.3133C87.3097 40.2304 87.4808 40.09 87.6011 39.9099C87.7215 39.7298 87.7857 39.518 87.7857 39.3014C87.7854 39.011 87.6699 38.7327 87.4645 38.5273C87.2592 38.322 86.9808 38.2065 86.6904 38.2062ZM86.6904 39.849C86.5821 39.849 86.4763 39.8169 86.3862 39.7567C86.2962 39.6966 86.226 39.611 86.1845 39.511C86.1431 39.4109 86.1322 39.3008 86.1534 39.1946C86.1745 39.0884 86.2266 38.9908 86.3032 38.9142C86.3798 38.8376 86.4774 38.7855 86.5836 38.7643C86.6898 38.7432 86.8 38.754 86.9 38.7955C87.0001 38.8369 87.0856 38.9071 87.1458 38.9972C87.206 39.0872 87.2381 39.1931 87.2381 39.3014C87.2379 39.4466 87.1802 39.5858 87.0775 39.6885C86.9748 39.7911 86.8356 39.8489 86.6904 39.849Z" fill="#222222"/>
<path d="M46.9536 23.8735C46.737 23.8735 46.5253 23.9377 46.3452 24.0581C46.165 24.1784 46.0247 24.3495 45.9418 24.5496C45.8589 24.7497 45.8372 24.9699 45.8794 25.1824C45.9217 25.3948 46.026 25.59 46.1792 25.7432C46.3324 25.8963 46.5275 26.0006 46.74 26.0429C46.9524 26.0852 47.1726 26.0635 47.3728 25.9806C47.5729 25.8977 47.7439 25.7573 47.8643 25.5772C47.9846 25.3971 48.0489 25.1853 48.0489 24.9687C48.0485 24.6783 47.933 24.4 47.7277 24.1946C47.5224 23.9893 47.244 23.8738 46.9536 23.8735ZM46.9536 25.5163C46.8453 25.5163 46.7395 25.4842 46.6494 25.424C46.5593 25.3639 46.4892 25.2783 46.4477 25.1783C46.4063 25.0782 46.3954 24.9681 46.4165 24.8619C46.4377 24.7556 46.4898 24.6581 46.5664 24.5815C46.643 24.5049 46.7406 24.4527 46.8468 24.4316C46.953 24.4105 47.0631 24.4213 47.1632 24.4628C47.2633 24.5042 47.3488 24.5744 47.409 24.6645C47.4691 24.7545 47.5013 24.8604 47.5013 24.9687C47.5011 25.1139 47.4434 25.2531 47.3407 25.3558C47.238 25.4584 47.0988 25.5162 46.9536 25.5163Z" fill="#222222"/>
<path d="M76.688 21.23C76.4714 21.23 76.2596 21.2942 76.0795 21.4146C75.8994 21.5349 75.759 21.706 75.6761 21.9061C75.5932 22.1062 75.5716 22.3264 75.6138 22.5389C75.6561 22.7513 75.7604 22.9465 75.9136 23.0997C76.0667 23.2528 76.2619 23.3572 76.4743 23.3994C76.6868 23.4417 76.907 23.42 77.1071 23.3371C77.3073 23.2542 77.4783 23.1138 77.5987 22.9337C77.719 22.7536 77.7833 22.5418 77.7833 22.3252C77.7829 22.0348 77.6674 21.7565 77.4621 21.5511C77.2568 21.3458 76.9784 21.2303 76.688 21.23ZM76.688 22.8728C76.5797 22.8728 76.4738 22.8407 76.3838 22.7805C76.2937 22.7204 76.2235 22.6348 76.1821 22.5348C76.1406 22.4347 76.1298 22.3246 76.1509 22.2184C76.172 22.1122 76.2242 22.0146 76.3008 21.938C76.3774 21.8614 76.4749 21.8093 76.5812 21.7881C76.6874 21.767 76.7975 21.7778 76.8976 21.8193C76.9976 21.8607 77.0832 21.9309 77.1433 22.021C77.2035 22.111 77.2356 22.2169 77.2356 22.3252C77.2355 22.4704 77.1777 22.6096 77.0751 22.7123C76.9724 22.815 76.8332 22.8727 76.688 22.8728Z" fill="#222222"/>
<path d="M6.29741 33.8245C6.29741 33.6079 6.23318 33.3961 6.11283 33.216C5.99248 33.0359 5.82143 32.8955 5.6213 32.8126C5.42117 32.7297 5.20096 32.708 4.9885 32.7503C4.77605 32.7926 4.58089 32.8969 4.42772 33.05C4.27455 33.2032 4.17024 33.3984 4.12798 33.6108C4.08572 33.8233 4.10741 34.0435 4.1903 34.2436C4.2732 34.4437 4.41358 34.6148 4.59369 34.7351C4.7738 34.8555 4.98555 34.9197 5.20217 34.9197C5.49255 34.9194 5.77093 34.8039 5.97626 34.5986C6.18158 34.3932 6.29708 34.1149 6.29741 33.8245ZM4.65455 33.8245C4.65455 33.7162 4.68667 33.6103 4.74684 33.5202C4.80702 33.4302 4.89254 33.36 4.99261 33.3186C5.09267 33.2771 5.20278 33.2663 5.30901 33.2874C5.41524 33.3085 5.51281 33.3607 5.5894 33.4373C5.66598 33.5138 5.71814 33.6114 5.73927 33.7177C5.7604 33.8239 5.74955 33.934 5.70811 34.0341C5.66666 34.1341 5.59647 34.2196 5.50641 34.2798C5.41636 34.34 5.31048 34.3721 5.20217 34.3721C5.05698 34.372 4.91777 34.3142 4.81511 34.2116C4.71244 34.1089 4.6547 33.9697 4.65455 33.8245Z" fill="#222222"/>
<path d="M4.44191 18.2111L5.25567 17.1405L4.74145 16.8491L4.21903 18.0484H4.2015L3.67086 16.8573L3.14734 17.1574L3.95343 18.2028V18.2198L2.69336 18.0572V18.6393L3.96165 18.4772V18.4942L3.14734 19.539L3.63581 19.8479L4.19329 18.6393H4.21026L4.72448 19.8391L5.26443 19.5308L4.44191 18.5024V18.4854L5.73538 18.6393V18.0572L4.44191 18.228V18.2111Z" fill="#FF6B00"/>
<path d="M41.2056 5.98052L40.7368 6.58236L41.0183 6.76033L41.3392 6.06431H41.349L41.6447 6.75486L41.9558 6.57743L41.4821 5.98545V5.97559L42.2269 6.06431V5.72862L41.4821 5.82719V5.81733L41.9509 5.20071L41.6552 5.03314L41.354 5.72369H41.3441L41.038 5.03807L40.7368 5.21057L41.2012 5.81295V5.82281L40.4756 5.72862V6.06431L41.2056 5.97067V5.98052Z" fill="#FF6B00"/>
<path d="M88.2891 9.46776V8.8966L87.0203 9.06471V9.04774L87.8192 7.99741L87.3149 7.71155L86.8023 8.88783H86.7848L86.2645 7.71976L85.7509 8.01383L86.5416 9.03952V9.0565L85.3057 8.8966V9.46776L86.5499 9.3084V9.32538L85.7509 10.3505L86.23 10.6534L86.7771 9.46776H86.793L87.2974 10.6446L87.8274 10.3423L87.0203 9.3336V9.31662L88.2891 9.46776Z" fill="#FF6B00"/>
<path d="M63.9332 11.1463L64.6221 10.24L64.1868 9.99353L63.7448 11.0083H63.7301L63.281 10.0006L62.838 10.2542L63.5198 11.1391V11.1534L62.4541 11.0154V11.5082L63.5269 11.3708V11.3856L62.838 12.2694L63.2514 12.5306L63.7229 11.5082H63.7372L64.1725 12.5235L64.6292 12.2623L63.9332 11.3927V11.3779L65.0274 11.5082V11.0154L63.9332 11.1605V11.1463Z" fill="#FF6B00"/>
<path d="M1.09524 79.3002C1.70012 79.3002 2.19048 78.8098 2.19048 78.2049C2.19048 77.6 1.70012 77.1097 1.09524 77.1097C0.490355 77.1097 0 77.6 0 78.2049C0 78.8098 0.490355 79.3002 1.09524 79.3002Z" fill="#222222"/>
<path d="M6.02374 77.1097H4.38088C4.09041 77.1097 3.81183 77.2251 3.60643 77.4305C3.40104 77.6359 3.28564 77.9144 3.28564 78.2049C3.28564 78.4954 3.40104 78.774 3.60643 78.9794C3.81183 79.1848 4.09041 79.3002 4.38088 79.3002H6.02374C6.31421 79.3002 6.59279 79.1848 6.79819 78.9794C7.00359 78.774 7.11898 78.4954 7.11898 78.2049C7.11898 77.9144 7.00359 77.6359 6.79819 77.4305C6.59279 77.2251 6.31421 77.1097 6.02374 77.1097Z" fill="#222222"/>
<path d="M87.619 77.1097H85.9761C85.6856 77.1097 85.407 77.2251 85.2016 77.4305C84.9962 77.6359 84.8809 77.9144 84.8809 78.2049C84.8809 78.4954 84.9962 78.774 85.2016 78.9794C85.407 79.1848 85.6856 79.3002 85.9761 79.3002H87.619C87.9094 79.3002 88.188 79.1848 88.3934 78.9794C88.5988 78.774 88.7142 78.4954 88.7142 78.2049C88.7142 77.9144 88.5988 77.6359 88.3934 77.4305C88.188 77.2251 87.9094 77.1097 87.619 77.1097Z" fill="#222222"/>
<path d="M90.9048 79.3002C91.5097 79.3002 92 78.8098 92 78.2049C92 77.6 91.5097 77.1097 90.9048 77.1097C90.2999 77.1097 89.8096 77.6 89.8096 78.2049C89.8096 78.8098 90.2999 79.3002 90.9048 79.3002Z" fill="#222222"/>
<path d="M64.7035 81.4907H60.1541C59.8787 81.5127 59.6218 81.6377 59.4345 81.8406C59.2471 82.0436 59.1431 82.3097 59.1431 82.5859C59.1431 82.8621 59.2471 83.1282 59.4345 83.3312C59.6218 83.5341 59.8787 83.6591 60.1541 83.6811H64.7035C64.9789 83.6591 65.2358 83.5341 65.4231 83.3312C65.6105 83.1282 65.7145 82.8621 65.7145 82.5859C65.7145 82.3097 65.6105 82.0436 65.4231 81.8406C65.2358 81.6377 64.9789 81.5127 64.7035 81.4907Z" fill="#FF6B00"/>
<path d="M31.8461 81.4907H27.2966C27.0213 81.5127 26.7644 81.6377 26.577 81.8406C26.3897 82.0436 26.2856 82.3097 26.2856 82.5859C26.2856 82.8621 26.3897 83.1282 26.577 83.3312C26.7644 83.5341 27.0213 83.6591 27.2966 83.6811H31.8461C32.1214 83.6591 32.3784 83.5341 32.5657 83.3312C32.7531 83.1282 32.8571 82.8621 32.8571 82.5859C32.8571 82.3097 32.7531 82.0436 32.5657 81.8406C32.3784 81.6377 32.1214 81.5127 31.8461 81.4907Z" fill="#FF6B00"/>
<path d="M56.9521 81.4907H35.0474C34.7569 81.4907 34.4783 81.6061 34.2729 81.8114C34.0675 82.0168 33.9521 82.2954 33.9521 82.5859C33.9521 82.8764 34.0675 83.155 34.2729 83.3604C34.4783 83.5657 34.7569 83.6811 35.0474 83.6811H43.7764V84.7764H39.4283C39.1379 84.7764 38.8593 84.8918 38.6539 85.0972C38.4485 85.3026 38.3331 85.5811 38.3331 85.8716C38.3331 86.1621 38.4485 86.4407 38.6539 86.6461C38.8593 86.8515 39.1379 86.9669 39.4283 86.9669H53.1188C53.4093 86.9669 53.6879 86.8515 53.8933 86.6461C54.0987 86.4407 54.2141 86.1621 54.2141 85.8716C54.2141 85.5811 54.0987 85.3026 53.8933 85.0972C53.6879 84.8918 53.4093 84.7764 53.1188 84.7764H48.2231V83.6811H56.9521C57.2426 83.6811 57.5212 83.5657 57.7266 83.3604C57.932 83.155 58.0474 82.8764 58.0474 82.5859C58.0474 82.2954 57.932 82.0168 57.7266 81.8114C57.5212 81.6061 57.2426 81.4907 56.9521 81.4907Z" fill="#FF6B00"/>
<path d="M82.5377 77.1097H75V75.9768C75.7629 75.854 76.4576 75.4649 76.9608 74.8786C77.464 74.2923 77.7432 73.5466 77.7489 72.774V65.1863C77.7417 64.318 77.3904 63.4879 76.772 62.8783C76.1536 62.2687 75.3186 61.9293 74.4503 61.9345H54.6587V60.3086C54.6515 59.4402 54.3002 58.6102 53.6818 58.0006C53.0634 57.3909 52.2284 57.0515 51.3601 57.0567H46.9619V54.3468H50.8103C51.0015 54.3474 51.1895 54.2982 51.3559 54.2041C51.5223 54.11 51.6614 53.9743 51.7595 53.8102C51.8564 53.6473 51.9083 53.4616 51.9099 53.2721C51.9115 53.0826 51.8627 52.896 51.7687 52.7315L46.8208 44.0599C46.7235 43.8919 46.5837 43.7524 46.4155 43.6554C46.2473 43.5584 46.0566 43.5074 45.8624 43.5074C45.6683 43.5074 45.4775 43.5584 45.3093 43.6554C45.1411 43.7524 45.0014 43.8919 44.9041 44.0599L39.9562 52.7315C39.8621 52.896 39.8134 53.0826 39.815 53.2721C39.8166 53.4616 39.8685 53.6473 39.9653 53.8102C40.0634 53.9743 40.2025 54.11 40.3689 54.2041C40.5353 54.2982 40.7234 54.3474 40.9145 54.3468H44.7629V57.0567H40.3647C39.4964 57.0515 38.6614 57.391 38.0431 58.0006C37.4247 58.6102 37.0733 59.4402 37.0662 60.3086V61.9345H17.2746C16.4062 61.9293 15.5713 62.2687 14.9529 62.8783C14.3345 63.488 13.9831 64.318 13.9759 65.1863V72.774C13.9799 73.4494 14.1936 74.1068 14.5876 74.6554C14.9816 75.204 15.5363 75.6166 16.175 75.8361V77.1097H9.46201C9.3062 77.0894 9.14783 77.1025 8.9975 77.1482C8.84716 77.1939 8.70831 77.2712 8.59022 77.3749C8.47213 77.4785 8.37752 77.6062 8.3127 77.7493C8.24788 77.8925 8.21436 78.0478 8.21436 78.205C8.21436 78.3621 8.24788 78.5174 8.3127 78.6606C8.37752 78.8037 8.47213 78.9314 8.59022 79.035C8.70831 79.1387 8.84716 79.216 8.9975 79.2617C9.14783 79.3074 9.3062 79.3206 9.46201 79.3002H82.5377C82.6935 79.3206 82.8519 79.3074 83.0022 79.2617C83.1526 79.216 83.2914 79.1387 83.4095 79.035C83.5276 78.9314 83.6222 78.8037 83.687 78.6606C83.7519 78.5174 83.7854 78.3621 83.7854 78.205C83.7854 78.0478 83.7519 77.8925 83.687 77.7493C83.6222 77.6062 83.5276 77.4785 83.4095 77.3749C83.2914 77.2712 83.1526 77.1939 83.0022 77.1482C82.8519 77.1025 82.6935 77.0894 82.5377 77.1097ZM72.801 77.1097H66.2038V76.0258H72.801V77.1097ZM42.7947 52.1789L45.8624 46.8024L48.9302 52.1789H42.7947ZM39.2653 60.3086C39.2677 60.0191 39.3848 59.7425 39.5909 59.5393C39.797 59.336 40.0753 59.2229 40.3648 59.2246H51.3601C51.6495 59.2229 51.9278 59.336 52.134 59.5392C52.3401 59.7425 52.4572 60.0191 52.4596 60.3086V61.9345H39.2653V60.3086ZM16.175 65.1863C16.1775 64.8969 16.2946 64.6202 16.5007 64.417C16.7068 64.2138 16.9851 64.1006 17.2746 64.1024H74.4503C74.7397 64.1006 75.018 64.2138 75.2242 64.417C75.4303 64.6202 75.5474 64.8969 75.5498 65.1863V72.774C75.5474 73.0634 75.4303 73.3401 75.2242 73.5433C75.018 73.7465 74.7397 73.8596 74.4503 73.8579H17.2746C16.9851 73.8596 16.7068 73.7465 16.5007 73.5433C16.2946 73.3401 16.1774 73.0634 16.175 72.774L16.175 65.1863ZM18.3741 76.0258H24.9713V77.1097H18.3741L18.3741 76.0258ZM27.1704 77.1097V76.0258H64.0047V77.1097H27.1704Z" fill="#222222"/>
</g>
<defs>
<clipPath id="clip0_30_959">
<rect width="92" height="92" fill="white"/>
</clipPath>
</defs>
</svg>
