<svg width="161" height="28" viewBox="0 0 161 28" fill="none" xmlns="http://www.w3.org/2000/svg">
<path d="M44.46 16.24V21.32H39.74V16.18L34.46 7.32H39.44L42.3 12.16L45.18 7.32H49.74L44.46 16.24Z" fill="#222222"/>
<path d="M58.9807 18.88H53.6607L52.7207 21.32H47.9207L54.0407 7.32H58.6807L64.8007 21.32H59.9207L58.9807 18.88ZM57.6807 15.48L56.3207 11.96L54.9607 15.48H57.6807Z" fill="#222222"/>
<path d="M76.754 14C77.5807 14.3067 78.2207 14.7533 78.674 15.34C79.1274 15.9267 79.354 16.6333 79.354 17.46C79.354 18.6867 78.8474 19.64 77.834 20.32C76.8207 20.9867 75.354 21.32 73.434 21.32H65.554V7.32H73.034C74.9007 7.32 76.3074 7.65333 77.254 8.32C78.214 8.98667 78.694 9.87333 78.694 10.98C78.694 11.6333 78.5274 12.22 78.194 12.74C77.874 13.26 77.394 13.68 76.754 14ZM70.194 10.62V12.7H72.394C73.4207 12.7 73.934 12.3533 73.934 11.66C73.934 10.9667 73.4207 10.62 72.394 10.62H70.194ZM73.034 18.02C74.074 18.02 74.594 17.6533 74.594 16.92C74.594 16.1867 74.074 15.82 73.034 15.82H70.194V18.02H73.034Z" fill="#222222"/>
<path d="M88.3628 21.64C86.8561 21.64 85.5028 21.3267 84.3028 20.7C83.1028 20.0733 82.1628 19.2067 81.4828 18.1C80.8028 16.98 80.4628 15.72 80.4628 14.32C80.4628 12.92 80.8028 11.6667 81.4828 10.56C82.1628 9.44 83.1028 8.56667 84.3028 7.94C85.5028 7.31333 86.8561 7 88.3628 7C89.8694 7 91.2228 7.31333 92.4228 7.94C93.6228 8.56667 94.5628 9.44 95.2428 10.56C95.9228 11.6667 96.2628 12.92 96.2628 14.32C96.2628 15.72 95.9228 16.98 95.2428 18.1C94.5628 19.2067 93.6228 20.0733 92.4228 20.7C91.2228 21.3267 89.8694 21.64 88.3628 21.64ZM88.3628 17.82C88.9494 17.82 89.4761 17.68 89.9428 17.4C90.4228 17.1067 90.8028 16.7 91.0828 16.18C91.3628 15.6467 91.5028 15.0267 91.5028 14.32C91.5028 13.6133 91.3628 13 91.0828 12.48C90.8028 11.9467 90.4228 11.54 89.9428 11.26C89.4761 10.9667 88.9494 10.82 88.3628 10.82C87.7761 10.82 87.2428 10.9667 86.7628 11.26C86.2961 11.54 85.9228 11.9467 85.6428 12.48C85.3628 13 85.2228 13.6133 85.2228 14.32C85.2228 15.0267 85.3628 15.6467 85.6428 16.18C85.9228 16.7 86.2961 17.1067 86.7628 17.4C87.2428 17.68 87.7761 17.82 88.3628 17.82Z" fill="#222222"/>
<path d="M120.248 7.32L115.768 21.32H110.708L108.448 13.84L106.068 21.32H101.008L96.5281 7.32H101.388L103.828 15.28L106.408 7.32H110.748L113.188 15.38L115.768 7.32H120.248Z" fill="#222222"/>
<path d="M121.296 7.32H126.016V17.66H132.336V21.32H121.296V7.32Z" fill="#222222"/>
<path d="M137.18 21.64C136.087 21.64 135.093 21.4667 134.2 21.12C133.32 20.76 132.593 20.24 132.02 19.56L134.56 16.56C134.933 17.0267 135.3 17.3733 135.66 17.6C136.02 17.8267 136.393 17.94 136.78 17.94C137.273 17.94 137.647 17.7933 137.9 17.5C138.167 17.2067 138.3 16.7733 138.3 16.2V10.88H133.54V7.32H142.96V15.92C142.96 17.8267 142.467 19.26 141.48 20.22C140.507 21.1667 139.073 21.64 137.18 21.64Z" fill="#222222"/>
<path d="M154.371 18.88H149.051L148.111 21.32H143.311L149.431 7.32H154.071L160.191 21.32H155.311L154.371 18.88ZM153.071 15.48L151.711 11.96L150.351 15.48H153.071Z" fill="#222222"/>
<path fill-rule="evenodd" clip-rule="evenodd" d="M14 28C21.732 28 28 21.732 28 14C28 6.26801 21.732 0 14 0C6.26801 0 0 6.26801 0 14C0 21.732 6.26801 28 14 28ZM17 11C18.1046 11 19 10.1046 19 9C19 7.89543 18.1046 7 17 7C15.8954 7 15 7.89543 15 9C15 10.1046 15.8954 11 17 11ZM25 10C25 11.1046 24.1046 12 23 12C21.8954 12 21 11.1046 21 10C21 8.89543 21.8954 8 23 8C24.1046 8 25 8.89543 25 10ZM19.5 21C21.433 21 23 19.2091 23 17C23 14.7909 21.433 13 19.5 13C17.567 13 16 14.7909 16 17C16 19.2091 17.567 21 19.5 21Z" fill="#FF6B00"/>
</svg>
