<svg width="92" height="92" viewBox="0 0 92 92" fill="none" xmlns="http://www.w3.org/2000/svg">
<g clip-path="url(#clip0_30_1000)">
<path d="M64.7035 85.2852H60.1541C59.8787 85.3072 59.6218 85.4322 59.4345 85.6351C59.2471 85.8381 59.1431 86.1042 59.1431 86.3804C59.1431 86.6566 59.2471 86.9227 59.4345 87.1257C59.6218 87.3286 59.8787 87.4536 60.1541 87.4756H64.7035C64.9789 87.4536 65.2358 87.3286 65.4231 87.1257C65.6105 86.9227 65.7145 86.6566 65.7145 86.3804C65.7145 86.1042 65.6105 85.8381 65.4231 85.6351C65.2358 85.4322 64.9789 85.3072 64.7035 85.2852Z" fill="#FF6B00"/>
<path d="M31.8461 85.2852H27.2966C27.0213 85.3072 26.7644 85.4322 26.577 85.6351C26.3897 85.8381 26.2856 86.1042 26.2856 86.3804C26.2856 86.6566 26.3897 86.9227 26.577 87.1257C26.7644 87.3286 27.0213 87.4536 27.2966 87.4756H31.8461C32.1214 87.4536 32.3784 87.3286 32.5657 87.1257C32.7531 86.9227 32.8571 86.6566 32.8571 86.3804C32.8571 86.1042 32.7531 85.8381 32.5657 85.6351C32.3784 85.4322 32.1214 85.3072 31.8461 85.2852Z" fill="#FF6B00"/>
<path d="M56.9521 85.2852H35.0474C34.7569 85.2852 34.4783 85.4005 34.2729 85.6059C34.0675 85.8113 33.9521 86.0899 33.9521 86.3804C33.9521 86.6709 34.0675 86.9494 34.2729 87.1548C34.4783 87.3602 34.7569 87.4756 35.0474 87.4756H43.7764V88.5709H39.4283C39.1379 88.5709 38.8593 88.6863 38.6539 88.8917C38.4485 89.0971 38.3331 89.3756 38.3331 89.6661C38.3331 89.9566 38.4485 90.2352 38.6539 90.4406C38.8593 90.646 39.1379 90.7613 39.4283 90.7613H53.1188C53.4093 90.7613 53.6879 90.646 53.8933 90.4406C54.0987 90.2352 54.2141 89.9566 54.2141 89.6661C54.2141 89.3756 54.0987 89.0971 53.8933 88.8917C53.6879 88.6863 53.4093 88.5709 53.1188 88.5709H48.2231V87.4756H56.9521C57.2426 87.4756 57.5212 87.3602 57.7266 87.1548C57.932 86.9494 58.0474 86.6709 58.0474 86.3804C58.0474 86.0899 57.932 85.8113 57.7266 85.6059C57.5212 85.4005 57.2426 85.2852 56.9521 85.2852Z" fill="#FF6B00"/>
<path d="M53.6621 23.9565C49.9891 20.2835 45.1561 17.9976 39.9866 17.4885C34.8171 16.9793 29.6311 18.2784 25.312 21.1642C20.993 24.0501 17.8082 28.3443 16.3003 33.3151C14.7924 38.2859 15.0547 43.6258 17.0426 48.4249C19.0304 53.2239 22.6208 57.1853 27.2019 59.6339C31.783 62.0826 37.0714 62.8671 42.1661 61.8537C47.2608 60.8403 51.8465 58.0918 55.1418 54.0764C58.4371 50.061 60.2383 45.0272 60.2383 39.8327C60.2463 36.8831 59.6692 33.9611 58.5404 31.2359C57.4117 28.5108 55.7535 26.0365 53.6621 23.9565ZM52.1132 54.1601C49.2796 56.9937 45.6692 58.9235 41.7388 59.7053C37.8084 60.4871 33.7344 60.0859 30.032 58.5523C26.3296 57.0187 23.1652 54.4217 20.9387 51.0897C18.7123 47.7576 17.524 43.8402 17.524 39.8327C17.524 35.8253 18.7123 31.9079 20.9387 28.5758C23.1652 25.2438 26.3296 22.6468 30.032 21.1132C33.7344 19.5796 37.8084 19.1784 41.7388 19.9602C45.6692 20.742 49.2796 22.6717 52.1132 25.5054C54.0023 27.3827 55.5015 29.6149 56.5245 32.0738C57.5475 34.5327 58.0742 37.1696 58.0742 39.8327C58.0742 42.4959 57.5475 45.1328 56.5245 47.5917C55.5015 50.0506 54.0023 52.2828 52.1132 54.1601Z" fill="#FF6B00"/>
<path d="M44.8114 40.928H47.0951C47.3856 40.928 47.6642 40.8126 47.8696 40.6072C48.075 40.4018 48.1904 40.1232 48.1904 39.8327C48.1904 39.5423 48.075 39.2637 47.8696 39.0583C47.6642 38.8529 47.3856 38.7375 47.0951 38.7375H44.8114C44.5773 37.2487 43.8771 35.8726 42.8114 34.8069C41.7458 33.7413 40.3696 33.0411 38.8809 32.8069V30.5232C38.8809 30.2327 38.7655 29.9542 38.5601 29.7488C38.3547 29.5434 38.0761 29.428 37.7856 29.428C37.4951 29.428 37.2166 29.5434 37.0112 29.7488C36.8058 29.9542 36.6904 30.2327 36.6904 30.5232V32.8069C35.2016 33.0411 33.8255 33.7413 32.7598 34.807C31.6942 35.8726 30.9939 37.2487 30.7598 38.7375H28.4761C28.1856 38.7375 27.907 38.8529 27.7016 39.0583C27.4962 39.2637 27.3809 39.5423 27.3809 39.8327C27.3809 40.1232 27.4962 40.4018 27.7016 40.6072C27.907 40.8126 28.1856 40.928 28.4761 40.928H30.7598C30.9939 42.4167 31.6942 43.7929 32.7598 44.8585C33.8255 45.9242 35.2016 46.6244 36.6904 46.8586V49.1423C36.6904 49.4327 36.8058 49.7113 37.0112 49.9167C37.2166 50.1221 37.4951 50.2375 37.7856 50.2375C38.0761 50.2375 38.3547 50.1221 38.5601 49.9167C38.7655 49.7113 38.8809 49.4327 38.8809 49.1423V46.8586C40.3696 46.6244 41.7458 45.9242 42.8114 44.8585C43.8771 43.7929 44.5773 42.4167 44.8114 40.928ZM36.6904 44.635C35.7864 44.4283 34.959 43.9708 34.3033 43.3151C33.6476 42.6593 33.1901 41.832 32.9834 40.928H36.6904V44.635ZM36.6904 38.7375H32.9834C33.1901 37.8335 33.6476 37.0061 34.3033 36.3504C34.959 35.6947 35.7864 35.2372 36.6904 35.0305V38.7375ZM38.8809 44.635V40.928H42.5878C42.3812 41.832 41.9237 42.6593 41.268 43.3151C40.6122 43.9708 39.7849 44.4283 38.8809 44.635ZM38.8809 38.7375V35.0305C39.7849 35.2372 40.6122 35.6947 41.268 36.3504C41.9237 37.0061 42.3812 37.8335 42.5878 38.7375L38.8809 38.7375Z" fill="#FF6B00"/>
<path d="M49.8992 44.7614C49.6087 44.7614 49.3301 44.8768 49.1247 45.0822C48.9194 45.2876 48.804 45.5661 48.8039 45.8566V50.8509H43.8096C43.5191 50.8509 43.2405 50.9663 43.0351 51.1717C42.8297 51.3771 42.7144 51.6557 42.7144 51.9462C42.7144 52.2367 42.8297 52.5152 43.0351 52.7206C43.2405 52.926 43.5191 53.0414 43.8096 53.0414H49.8992C50.1897 53.0414 50.4682 52.926 50.6736 52.7206C50.879 52.5152 50.9944 52.2367 50.9944 51.9462V45.8566C50.9944 45.5661 50.879 45.2876 50.6736 45.0822C50.4682 44.8768 50.1897 44.7614 49.8992 44.7614Z" fill="#222222"/>
<path d="M49.8992 26.6241H43.8096C43.5191 26.6241 43.2405 26.7395 43.0351 26.9449C42.8297 27.1503 42.7144 27.4289 42.7144 27.7194C42.7144 28.0099 42.8297 28.2884 43.0351 28.4938C43.2405 28.6992 43.5191 28.8146 43.8096 28.8146H48.8039V33.809C48.8039 34.0994 48.9193 34.378 49.1247 34.5834C49.3301 34.7888 49.6087 34.9042 49.8992 34.9042C50.1897 34.9042 50.4682 34.7888 50.6736 34.5834C50.879 34.378 50.9944 34.0994 50.9944 33.809V27.7194C50.9944 27.4289 50.879 27.1503 50.6736 26.9449C50.4682 26.7396 50.1897 26.6242 49.8992 26.6241Z" fill="#222222"/>
<path d="M31.762 50.8509H26.7676V45.8566C26.7676 45.5661 26.6522 45.2875 26.4468 45.0821C26.2414 44.8767 25.9629 44.7614 25.6724 44.7614C25.3819 44.7614 25.1033 44.8767 24.8979 45.0821C24.6925 45.2875 24.5771 45.5661 24.5771 45.8566V51.9462C24.5772 52.2366 24.6926 52.5152 24.898 52.7206C25.1033 52.926 25.3819 53.0414 25.6724 53.0414H31.762C32.0525 53.0414 32.331 52.926 32.5364 52.7206C32.7418 52.5152 32.8572 52.2366 32.8572 51.9462C32.8572 51.6557 32.7418 51.3771 32.5364 51.1717C32.331 50.9663 32.0525 50.8509 31.762 50.8509Z" fill="#222222"/>
<path d="M25.6724 34.9042C25.9629 34.9042 26.2414 34.7888 26.4468 34.5834C26.6522 34.378 26.7676 34.0994 26.7676 33.8089V28.8146H31.762C32.0525 28.8146 32.331 28.6992 32.5364 28.4938C32.7418 28.2884 32.8572 28.0099 32.8572 27.7194C32.8572 27.4289 32.7418 27.1503 32.5364 26.9449C32.331 26.7395 32.0525 26.6241 31.762 26.6241H25.6724C25.3819 26.6242 25.1033 26.7396 24.898 26.9449C24.6926 27.1503 24.5772 27.4289 24.5771 27.7194V33.8089C24.5772 34.0994 24.6926 34.378 24.898 34.5834C25.1033 34.7888 25.3819 34.9042 25.6724 34.9042Z" fill="#222222"/>
<path d="M79.9522 26.1422C80.2426 26.1422 80.5212 26.0268 80.7266 25.8214C80.932 25.6161 81.0474 25.3375 81.0474 25.047V14.0946C81.0474 13.8042 80.932 13.5256 80.7266 13.3202C80.5212 13.1148 80.2426 12.9994 79.9522 12.9994C79.6617 12.9994 79.3831 13.1148 79.1777 13.3202C78.9723 13.5256 78.8569 13.8042 78.8569 14.0946V25.047C78.8569 25.3375 78.9723 25.6161 79.1777 25.8214C79.3831 26.0268 79.6617 26.1422 79.9522 26.1422Z" fill="#222222"/>
<path d="M75.5713 34.3565C75.8618 34.3565 76.1404 34.2411 76.3457 34.0357C76.5511 33.8303 76.6665 33.5518 76.6666 33.2613V14.0946C76.6666 13.8042 76.5512 13.5256 76.3458 13.3202C76.1404 13.1148 75.8618 12.9994 75.5713 12.9994C75.2808 12.9994 75.0023 13.1148 74.7969 13.3202C74.5915 13.5256 74.4761 13.8042 74.4761 14.0946V33.2613C74.4761 33.5518 74.5915 33.8303 74.7969 34.0357C75.0023 34.2411 75.2808 34.3565 75.5713 34.3565Z" fill="#222222"/>
<path d="M71.1905 26.1422C71.4809 26.1422 71.7595 26.0268 71.9649 25.8214C72.1703 25.6161 72.2857 25.3375 72.2857 25.047V14.0946C72.2857 13.8042 72.1703 13.5256 71.9649 13.3202C71.7595 13.1148 71.4809 12.9994 71.1905 12.9994C70.9 12.9994 70.6214 13.1148 70.416 13.3202C70.2106 13.5256 70.0952 13.8042 70.0952 14.0946V25.047C70.0952 25.3375 70.2106 25.6161 70.416 25.8214C70.6214 26.0268 70.9 26.1422 71.1905 26.1422Z" fill="#222222"/>
<path d="M1.09524 83.0947C1.70012 83.0947 2.19048 82.6043 2.19048 81.9994C2.19048 81.3945 1.70012 80.9042 1.09524 80.9042C0.490355 80.9042 0 81.3945 0 81.9994C0 82.6043 0.490355 83.0947 1.09524 83.0947Z" fill="#222222"/>
<path d="M6.02374 80.9042H4.38088C4.09041 80.9042 3.81183 81.0196 3.60643 81.225C3.40104 81.4304 3.28564 81.7089 3.28564 81.9994C3.28564 82.2899 3.40104 82.5685 3.60643 82.7739C3.81183 82.9793 4.09041 83.0947 4.38088 83.0947H6.02374C6.31421 83.0947 6.59279 82.9793 6.79819 82.7739C7.00359 82.5685 7.11898 82.2899 7.11898 81.9994C7.11898 81.7089 7.00359 81.4304 6.79819 81.225C6.59279 81.0196 6.31421 80.9042 6.02374 80.9042Z" fill="#222222"/>
<path d="M87.619 80.9042H85.9761C85.6856 80.9042 85.407 81.0196 85.2016 81.225C84.9962 81.4304 84.8809 81.7089 84.8809 81.9994C84.8809 82.2899 84.9962 82.5685 85.2016 82.7739C85.407 82.9793 85.6856 83.0947 85.9761 83.0947H87.619C87.9094 83.0947 88.188 82.9793 88.3934 82.7739C88.5988 82.5685 88.7142 82.2899 88.7142 81.9994C88.7142 81.7089 88.5988 81.4304 88.3934 81.225C88.188 81.0196 87.9094 80.9042 87.619 80.9042Z" fill="#222222"/>
<path d="M90.9048 83.0947C91.5097 83.0947 92 82.6043 92 81.9994C92 81.3945 91.5097 80.9042 90.9048 80.9042C90.2999 80.9042 89.8096 81.3945 89.8096 81.9994C89.8096 82.6043 90.2999 83.0947 90.9048 83.0947Z" fill="#222222"/>
<path d="M82.5377 80.9042H78.2013L79.7382 79.3673C80.5753 78.5283 81.0454 77.3915 81.0454 76.2063C81.0454 75.0212 80.5753 73.8844 79.7382 73.0454L64.8147 58.1219C65.1206 57.5016 65.225 56.8012 65.1135 56.1186C65.002 55.4361 64.68 54.8054 64.1926 54.3147L61.7651 51.8872C64.6256 46.1932 65.365 39.6667 63.851 33.477C62.337 27.2874 58.6684 21.8391 53.5026 18.1084C48.3368 14.3777 42.0113 12.6083 35.6596 13.1173C29.3078 13.6263 23.3449 16.3804 18.8391 20.8862C14.3333 25.3919 11.5792 31.3549 11.0702 37.7066C10.5612 44.0584 12.3305 50.3839 16.0612 55.5497C19.792 60.7155 25.2402 64.3841 31.4299 65.8981C37.6195 67.4121 44.146 66.6727 49.84 63.8122L52.2675 66.2397C52.7578 66.7308 53.3897 67.0559 54.0743 67.1692C54.759 67.2825 55.4619 67.1783 56.0842 66.8713L70.1171 80.9042H21.9046V71.047C21.9046 70.7566 21.7892 70.478 21.5838 70.2726C21.3784 70.0672 21.0999 69.9518 20.8094 69.9518C20.5189 69.9518 20.2403 70.0672 20.0349 70.2726C19.8295 70.478 19.7142 70.7566 19.7142 71.047V80.9042H17.5237V62.8327C17.5237 62.5423 17.4083 62.2637 17.2029 62.0583C16.9975 61.8529 16.7189 61.7375 16.4284 61.7375C16.138 61.7375 15.8594 61.8529 15.654 62.0583C15.4486 62.2637 15.3332 62.5423 15.3332 62.8327V80.9042H13.1427V71.047C13.1427 70.7566 13.0273 70.478 12.8219 70.2726C12.6165 70.0672 12.338 69.9518 12.0475 69.9518C11.757 69.9518 11.4784 70.0672 11.273 70.2726C11.0676 70.478 10.9522 70.7566 10.9522 71.047V80.9042H9.46201C9.3062 80.8838 9.14783 80.8969 8.9975 80.9427C8.84716 80.9884 8.70831 81.0657 8.59022 81.1693C8.47213 81.273 8.37752 81.4007 8.3127 81.5438C8.24788 81.687 8.21436 81.8423 8.21436 81.9994C8.21436 82.1566 8.24788 82.3119 8.3127 82.455C8.37752 82.5982 8.47213 82.7258 8.59022 82.8295C8.70831 82.9332 8.84716 83.0104 8.9975 83.0562C9.14783 83.1019 9.3062 83.115 9.46201 83.0947H82.5377C82.6935 83.115 82.8519 83.1019 83.0022 83.0562C83.1526 83.0104 83.2914 82.9332 83.4095 82.8295C83.5276 82.7258 83.6222 82.5982 83.687 82.455C83.7519 82.3119 83.7854 82.1566 83.7854 81.9994C83.7854 81.8423 83.7519 81.687 83.687 81.5438C83.6222 81.4007 83.5276 81.273 83.4095 81.1693C83.2914 81.0657 83.1526 80.9884 83.0022 80.9427C82.8519 80.8969 82.6935 80.8838 82.5377 80.9042ZM37.7856 64.4756C32.0843 64.4756 26.5595 62.4988 22.1523 58.8819C17.7452 55.2651 14.7285 50.232 13.6162 44.6403C12.504 39.0486 13.365 33.2442 16.0525 28.2162C18.7401 23.1881 23.0879 19.2475 28.3552 17.0657C33.6225 14.8839 39.4833 14.596 44.9391 16.251C50.3948 17.906 55.1079 21.4015 58.2754 26.1419C61.4428 30.8823 62.8686 36.5744 62.3098 42.2482C61.751 47.922 59.2421 53.2265 55.2107 57.2579C52.9249 59.5496 50.2088 61.367 47.2184 62.6057C44.228 63.8443 41.0224 64.4798 37.7856 64.4756ZM55.4214 64.6908C55.2085 64.9037 54.9199 65.0232 54.6189 65.0232C54.3179 65.0232 54.0292 64.9037 53.8164 64.6908L51.8286 62.703C55.4205 60.4909 58.4437 57.4676 60.6559 53.8758L62.6437 55.8635C62.8565 56.0764 62.9761 56.365 62.9761 56.666C62.9761 56.967 62.8565 57.2557 62.6437 57.4685L55.4214 64.6908ZM72.5472 80.2364L57.7603 65.4496L59.89 63.3199L64.3921 67.822C64.5976 68.0268 64.876 68.1416 65.1661 68.1413C65.4561 68.141 65.7343 68.0257 65.9394 67.8206C66.1445 67.6155 66.2599 67.3373 66.2601 67.0472C66.2604 66.7572 66.1456 66.4788 65.9409 66.2733L61.4388 61.7712L63.4025 59.8075L75.4419 71.847C75.553 72.0684 75.5918 72.3192 75.5528 72.5639C75.5138 72.8086 75.3989 73.0349 75.2244 73.2108L72.8064 75.6288C72.7047 75.7305 72.6239 75.8512 72.5689 75.9841C72.5138 76.117 72.4854 76.2594 72.4854 76.4033C72.4854 76.5471 72.5137 76.6895 72.5687 76.8224C72.6238 76.9553 72.7044 77.0761 72.8062 77.1778C72.9079 77.2795 73.0286 77.3602 73.1615 77.4152C73.2944 77.4703 73.4369 77.4986 73.5807 77.4986C73.7245 77.4985 73.867 77.4702 73.9998 77.4151C74.1327 77.36 74.2534 77.2793 74.3551 77.1776L76.7734 74.7595C77.0405 74.4869 77.2588 74.1704 77.4187 73.8238L78.1892 74.5943C78.6167 75.0218 78.8569 75.6017 78.8569 76.2063C78.8569 76.811 78.6167 77.3908 78.1892 77.8184L75.7711 80.2364C75.5594 80.4481 75.3081 80.6161 75.0315 80.7306C74.7549 80.8452 74.4585 80.9042 74.1591 80.9042C73.8597 80.9042 73.5633 80.8452 73.2867 80.7306C73.0101 80.6161 72.7589 80.4481 72.5472 80.2364Z" fill="#222222"/>
<path d="M4.00028 33.809C4.32521 33.809 4.64283 33.7126 4.913 33.5321C5.18317 33.3516 5.39374 33.095 5.51808 32.7948C5.64243 32.4946 5.67496 32.1643 5.61157 31.8456C5.54818 31.5269 5.39171 31.2342 5.16195 31.0044C4.9322 30.7747 4.63947 30.6182 4.32078 30.5548C4.0021 30.4914 3.67178 30.524 3.37158 30.6483C3.07139 30.7727 2.81481 30.9832 2.63429 31.2534C2.45377 31.5236 2.35742 31.8412 2.35742 32.1661C2.35792 32.6017 2.53117 33.0192 2.83915 33.3272C3.14714 33.6352 3.56472 33.8085 4.00028 33.809ZM4.00028 31.3447C4.16274 31.3447 4.32156 31.3929 4.45664 31.4831C4.59172 31.5734 4.69701 31.7017 4.75918 31.8518C4.82135 32.0019 4.83762 32.167 4.80592 32.3264C4.77423 32.4857 4.696 32.6321 4.58112 32.7469C4.46624 32.8618 4.31987 32.9401 4.16053 32.9718C4.00119 33.0035 3.83603 32.9872 3.68593 32.925C3.53584 32.8628 3.40755 32.7576 3.31729 32.6225C3.22703 32.4874 3.17885 32.3286 3.17885 32.1661C3.17906 31.9483 3.26568 31.7395 3.41968 31.5855C3.57368 31.4315 3.78249 31.3449 4.00028 31.3447Z" fill="#222222"/>
<path d="M62.5952 16.2852C62.3786 16.2852 62.1669 16.3494 61.9868 16.4697C61.8066 16.5901 61.6663 16.7611 61.5834 16.9613C61.5005 17.1614 61.4788 17.3816 61.521 17.5941C61.5633 17.8065 61.6676 18.0017 61.8208 18.1548C61.974 18.308 62.1691 18.4123 62.3816 18.4546C62.594 18.4968 62.8142 18.4752 63.0144 18.3923C63.2145 18.3094 63.3856 18.169 63.5059 17.9889C63.6262 17.8088 63.6905 17.597 63.6905 17.3804C63.6901 17.09 63.5746 16.8116 63.3693 16.6063C63.164 16.401 62.8856 16.2855 62.5952 16.2852ZM62.5952 17.928C62.4869 17.928 62.3811 17.8959 62.291 17.8357C62.2009 17.7755 62.1308 17.69 62.0893 17.59C62.0479 17.4899 62.037 17.3798 62.0581 17.2736C62.0793 17.1673 62.1314 17.0698 62.208 16.9932C62.2846 16.9166 62.3822 16.8644 62.4884 16.8433C62.5946 16.8222 62.7047 16.833 62.8048 16.8745C62.9049 16.9159 62.9904 16.9861 63.0506 17.0762C63.1107 17.1662 63.1429 17.2721 63.1429 17.3804C63.1427 17.5256 63.085 17.6648 62.9823 17.7675C62.8796 17.8701 62.7404 17.9279 62.5952 17.928Z" fill="#222222"/>
<path d="M2.35745 1.49939C2.14083 1.49939 1.92907 1.56362 1.74896 1.68397C1.56885 1.80432 1.42847 1.97537 1.34558 2.1755C1.26268 2.37563 1.24099 2.59584 1.28325 2.8083C1.32551 3.02075 1.42982 3.21591 1.583 3.36908C1.73617 3.52225 1.93132 3.62656 2.14378 3.66882C2.35623 3.71108 2.57645 3.68939 2.77658 3.6065C2.9767 3.5236 3.14776 3.38322 3.2681 3.20311C3.38845 3.023 3.45268 2.81125 3.45268 2.59463C3.45235 2.30425 3.33685 2.02587 3.13153 1.82054C2.9262 1.61522 2.64782 1.49972 2.35745 1.49939ZM2.35745 3.14225C2.24914 3.14225 2.14326 3.11013 2.0532 3.04996C1.96315 2.98978 1.89296 2.90426 1.85151 2.80419C1.81006 2.70413 1.79922 2.59402 1.82035 2.48779C1.84148 2.38156 1.89363 2.28399 1.97022 2.2074C2.04681 2.13082 2.14438 2.07866 2.25061 2.05753C2.35684 2.0364 2.46695 2.04725 2.56701 2.08869C2.66707 2.13014 2.7526 2.20033 2.81277 2.29039C2.87295 2.38044 2.90506 2.48632 2.90506 2.59463C2.90492 2.73982 2.84718 2.87903 2.74451 2.98169C2.64184 3.08436 2.50264 3.1421 2.35745 3.14225Z" fill="#222222"/>
<path d="M88.8814 10.2614C88.6647 10.2614 88.453 10.3256 88.2729 10.4459C88.0928 10.5663 87.9524 10.7373 87.8695 10.9375C87.7866 11.1376 87.7649 11.3578 87.8072 11.5703C87.8494 11.7827 87.9538 11.9779 88.1069 12.131C88.2601 12.2842 88.4552 12.3885 88.6677 12.4308C88.8802 12.473 89.1004 12.4514 89.3005 12.3685C89.5006 12.2856 89.6717 12.1452 89.792 11.9651C89.9124 11.785 89.9766 11.5732 89.9766 11.3566C89.9763 11.0662 89.8608 10.7878 89.6555 10.5825C89.4501 10.3772 89.1717 10.2617 88.8814 10.2614ZM88.8814 11.9042C88.7731 11.9042 88.6672 11.8721 88.5771 11.8119C88.4871 11.7517 88.4169 11.6662 88.3754 11.5662C88.334 11.4661 88.3231 11.356 88.3443 11.2498C88.3654 11.1435 88.4176 11.046 88.4941 10.9694C88.5707 10.8928 88.6683 10.8406 88.7745 10.8195C88.8808 10.7984 88.9909 10.8092 89.0909 10.8507C89.191 10.8921 89.2765 10.9623 89.3367 11.0523C89.3969 11.1424 89.429 11.2483 89.429 11.3566C89.4288 11.5018 89.3711 11.641 89.2684 11.7437C89.1658 11.8463 89.0266 11.9041 88.8814 11.9042Z" fill="#222222"/>
<path d="M49.4527 8.61849C49.4527 8.40188 49.3885 8.19012 49.2681 8.01001C49.1478 7.8299 48.9767 7.68952 48.7766 7.60662C48.5764 7.52373 48.3562 7.50204 48.1438 7.5443C47.9313 7.58656 47.7362 7.69087 47.583 7.84404C47.4298 7.99721 47.3255 8.19237 47.2833 8.40482C47.241 8.61728 47.2627 8.83749 47.3456 9.03762C47.4285 9.23775 47.5689 9.4088 47.749 9.52915C47.9291 9.6495 48.1408 9.71373 48.3574 9.71373C48.6478 9.7134 48.9262 9.5979 49.1315 9.39258C49.3369 9.18725 49.4524 8.90887 49.4527 8.61849ZM47.8098 8.61849C47.8098 8.51018 47.8419 8.40431 47.9021 8.31425C47.9623 8.2242 48.0478 8.15401 48.1479 8.11256C48.2479 8.07111 48.3581 8.06027 48.4643 8.0814C48.5705 8.10253 48.6681 8.15468 48.7447 8.23127C48.8213 8.30785 48.8734 8.40543 48.8945 8.51166C48.9157 8.61789 48.9048 8.72799 48.8634 8.82806C48.8219 8.92812 48.7517 9.01365 48.6617 9.07382C48.5716 9.13399 48.4658 9.16611 48.3574 9.16611C48.2123 9.16597 48.073 9.10823 47.9704 9.00556C47.8677 8.90289 47.81 8.76369 47.8098 8.61849Z" fill="#222222"/>
<path d="M72.772 2.60064L73.5863 1.53004L73.0721 1.23871L72.5491 2.43799H72.5321L72.0009 1.24692L71.478 1.54702L72.2835 2.59242V2.6094L71.0234 2.44676V3.02942L72.2917 2.86678V2.88376L71.478 3.92861L71.9659 4.23747L72.5234 3.02942H72.5403L73.0546 4.22871L73.5945 3.9204L72.772 2.89197V2.87499L74.0655 3.02942V2.44676L72.772 2.61816V2.60064Z" fill="#FF6B00"/>
<path d="M30.1636 3.17895L29.6949 3.78078L29.9763 3.95821L30.2972 3.26273H30.3066L30.6028 3.95328L30.9139 3.77585L30.4402 3.18333V3.17402L31.1849 3.26273V2.92704L30.4402 3.02562V3.01576L30.9089 2.39914L30.6132 2.23157L30.312 2.92212H30.3022L29.9961 2.2365L29.6949 2.409L30.1587 3.01083V3.02069L29.4331 2.92704V3.26273L30.1636 3.16909V3.17895Z" fill="#FF6B00"/>
<path d="M87.7862 25.9851V25.4139L86.5174 25.582V25.5651L87.3158 24.5147L86.8115 24.2289L86.2989 25.4052H86.2819L85.7611 24.2371L85.248 24.5317L86.0382 25.5569V25.5738L84.8022 25.4139V25.9851L86.0464 25.8257V25.8427L85.248 26.8679L85.7272 27.1707L86.2737 25.9851H86.2901L86.7945 27.1619L87.324 26.8596L86.5174 25.8509V25.834L87.7862 25.9851Z" fill="#FF6B00"/>
<path d="M13.5524 17.1536L14.2413 16.2473L13.8059 16.0009L13.364 17.0156H13.3492L12.9001 16.008L12.4571 16.2621L13.1389 17.1465V17.1607L12.0732 17.0233V17.5161L13.146 17.3787V17.3929L12.4571 18.2773L12.8706 18.5385L13.3421 17.5161H13.3563L13.7917 18.5309L14.2484 18.2702L13.5524 17.4V17.3858L14.6465 17.5161V17.0233L13.5524 17.1678V17.1536Z" fill="#FF6B00"/>
</g>
<defs>
<clipPath id="clip0_30_1000">
<rect width="92" height="92" fill="white"/>
</clipPath>
</defs>
</svg>
