<svg width="25" height="25" viewBox="0 0 25 25" fill="none" xmlns="http://www.w3.org/2000/svg">
<path fill-rule="evenodd" clip-rule="evenodd" d="M12.5 25C19.4036 25 25 19.4036 25 12.5C25 5.59644 19.4036 0 12.5 0C5.59644 0 0 5.59644 0 12.5C0 19.4036 5.59644 25 12.5 25ZM12.5 9C13.3284 9 14 8.32843 14 7.5C14 6.67157 13.3284 6 12.5 6C11.6716 6 11 6.67157 11 7.5C11 8.32843 11.6716 9 12.5 9ZM15.5 14C16.3284 14 17 13.3284 17 12.5C17 11.6716 16.3284 11 15.5 11C14.6716 11 14 11.6716 14 12.5C14 13.3284 14.6716 14 15.5 14ZM9.5 14C10.3284 14 11 13.3284 11 12.5C11 11.6716 10.3284 11 9.5 11C8.67157 11 8 11.6716 8 12.5C8 13.3284 8.67157 14 9.5 14Z" fill="#FF6B00"/>
</svg>
